# xmcd
#
# Track frame offsets: 
#        150
#        18208
#        32530
#        45268
#        65469
#        81087
#        98163
#        110936
#        127806
#        155107
#        168731
#        185453
#        202698
#        220402
#        237767
#        251215
#        271516
#        285084
#
# Disc length: 4046 seconds
#
# Revision: 0
# Processed by: cddbd v1.4PL0 Copyright (c) Steve Scherf et al.
# Submitted via: ExactAudioCopy v0.90b4
#
DISCID=eb0fcc12
DTITLE=Tom Russell Band - All Around These Northern Towns
DYEAR=2000
DGENRE=Country
TTITLE0=Blue Wing
TTITLE1=St Olav's Gate
TTITLE2=Home Before Dark
TTITLE3=U.S. Steel
TTITLE4=The Road to Bayamon
TTITLE5=Walking on the Moon
TTITLE6=Outbound Plane
TTITLE7=Alkali
TTITLE8=Gallo del Cielo
TTITLE9=Spanish Burgundy
TTITLE10=Black Pearl
TTITLE11=Navajo Rug
TTITLE12=Haley's Comet
TTITLE13=Winnipeg
TTITLE14=Jack Johnson
TTITLE15=Hurricane Season
TTITLE16=I'm on Fire
TTITLE17=Northern Towns
EXTD=
EXTT0=
EXTT1=
EXTT2=
EXTT3=
EXTT4=
EXTT5=
EXTT6=
EXTT7=
EXTT8=
EXTT9=
EXTT10=
EXTT11=
EXTT12=
EXTT13=
EXTT14=
EXTT15=
EXTT16=
EXTT17=
PLAYORDER=
